PathFileType	4	(X/Y/Z)	Kaydara	
DataRate	CameraRate	NumFrames	NumMarkers	Units	OrigDataRate	OrigDataStartFrame	OrigNumFrames	
120.00	120.00	4	72	mm	120.00	33	261	
Frame#	Time	Hips			RightUpLeg			RightLeg			RightFoot			RightFoot_End			LeftUpLeg			LeftLeg			LeftFoot			LeftFoot_End			Spine			Spine1			Spine2			Spine3			Neck			Head			Head_End			RightShoulder			RightArm			RightForeArm			RightHand			RightHandThumb1			RightHandThumb2			RightHandThumb3			RightHandThumb3_End			RightInHandIndex			RightHandIndex1			RightHandIndex2			RightHandIndex3			RightHandIndex3_End			RightInHandMiddle			RightHandMiddle1			RightHandMiddle2			RightHandMiddle3			RightHandMiddle3_End			RightInHandRing			RightHandRing1			RightHandRing2			RightHandRing3			RightHandRing3_End			RightInHandPinky			RightHandPinky1			RightHandPinky2			RightHandPinky3			RightHandPinky3_End			LeftShoulder			LeftArm			LeftForeArm			LeftHand			LeftHandThumb1			LeftHandThumb2			LeftHandThumb3			LeftHandThumb3_End			LeftInHandIndex			LeftHandIndex1			LeftHandIndex2			LeftHandIndex3			LeftHandIndex3_End			LeftInHandMiddle			LeftHandMiddle1			LeftHandMiddle2			LeftHandMiddle3			LeftHandMiddle3_End			LeftInHandRing			LeftHandRing1			LeftHandRing2			LeftHandRing3			LeftHandRing3_End			LeftInHandPinky			LeftHandPinky1			LeftHandPinky2			LeftHandPinky3			LeftHandPinky3_End			
		X1	Y1	Z1	X2	Y2	Z2	X3	Y3	Z3	X4	Y4	Z4	X5	Y5	Z5	X6	Y6	Z6	X7	Y7	Z7	X8	Y8	Z8	X9	Y9	Z9	X10	Y10	Z10	X11	Y11	Z11	X12	Y12	Z12	X13	Y13	Z13	X14	Y14	Z14	X15	Y15	Z15	X16	Y16	Z16	X17	Y17	Z17	X18	Y18	Z18	X19	Y19	Z19	X20	Y20	Z20	X21	Y21	Z21	X22	Y22	Z22	X23	Y23	Z23	X24	Y24	Z24	X25	Y25	Z25	X26	Y26	Z26	X27	Y27	Z27	X28	Y28	Z28	X29	Y29	Z29	X30	Y30	Z30	X31	Y31	Z31	X32	Y32	Z32	X33	Y33	Z33	X34	Y34	Z34	X35	Y35	Z35	X36	Y36	Z36	X37	Y37	Z37	X38	Y38	Z38	X39	Y39	Z39	X40	Y40	Z40	X41	Y41	Z41	X42	Y42	Z42	X43	Y43	Z43	X44	Y44	Z44	X45	Y45	Z45	X46	Y46	Z46	X47	Y47	Z47	X48	Y48	Z48	X49	Y49	Z49	X50	Y50	Z50	X51	Y51	Z51	X52	Y52	Z52	X53	Y53	Z53	X54	Y54	Z54	X55	Y55	Z55	X56	Y56	Z56	X57	Y57	Z57	X58	Y58	Z58	X59	Y59	Z59	X60	Y60	Z60	X61	Y61	Z61	X62	Y62	Z62	X63	Y63	Z63	X64	Y64	Z64	X65	Y65	Z65	X66	Y66	Z66	X67	Y67	Z67	X68	Y68	Z68	X69	Y69	Z69	X70	Y70	Z70	X71	Y71	Z71	X72	Y72	Z72	

33	0.267	2081.203	893.81699	129.612	2160.445708447629	896.2001298484273	82.3449215081036	2064.7644447517237	497.03023739214126	0.21708165519465167	2038.4103669687668	107.83861374476383	-30.85795210637368	1924.7532326159214	35.611851108868045	105.84544408424529	2016.1882570323562	866.3065242393646	190.40376796975733	1914.832159456682	474.8399830003298	299.013403764085	1809.530730179	69.47515590758329	432.24545107106076	1662.0088849307504	12.011126959232586	327.17550417997427	2015.8939773480317	1010.4723135674526	79.35025681656009	1954.0290803149771	1067.5971409805338	31.45266581719163	1885.5382292752972	1120.1403423799054	-20.746556977663033	1814.625262544048	1158.841223375065	-73.9583764673892	1737.7676992011347	1201.93094840447	-128.25145197188326	1662.4711408130686	1237.1835024006439	-172.7416211286429	1523.89028436514	1315.6360951458967	-181.73850730168627	1782.5366524763858	1193.8368151024804	-129.64755236319365	1846.6165071504643	1203.249598838747	-211.4843890441775	1908.4559286222843	984.3180657793962	-240.65889871862777	2021.2227646130502	828.7095028118987	-284.1282291629862	2017.6580492107125	825.8024264746582	-305.18607314931387	2006.7040132643203	814.1034988091637	-317.30904704099936	2001.2330674236773	803.662033218959	-323.7582704517803	1998.5178057164658	792.9946847856933	-327.42956360084423	2026.532111172437	817.3351892631425	-300.5576949656658	2036.2931559847348	791.3376502318357	-315.74107904270306	2035.2482040280067	773.1174093131507	-323.18376473549	2027.781596811803	765.6056085692718	-326.541879446161	2017.00324718812	761.9619131902027	-328.46540009469254	2031.6877135303685	811.9937230843018	-294.4595392611963	2043.999240311456	783.7473329618613	-305.9713540554717	2043.4978117545313	763.244801971957	-313.2350105429541	2034.7961553115356	753.8842845508901	-316.87480654282996	2023.1516940017661	749.7526439989103	-318.7793839376962	2035.17668200386	808.8645223502625	-289.78544173012773	2049.5187426832504	780.778555115885	-296.1083710054458	2049.714176891565	762.3188453721855	-301.54427651371856	2041.6566081400879	752.9767652554101	-304.57978570690955	2030.8670278195116	748.943617896124	-306.145297863951	2038.16179996781	806.1597509908041	-283.7874040901303	2053.4805949260394	778.6602852841326	-285.9667412342989	2054.5605740490787	763.0811704793913	-288.8953668858308	2049.1300717697354	755.881365895765	-290.42053056143124	2039.8293503581233	752.086698621384	-291.410819210118	1743.8370881136066	1179.8948516536148	-90.87200039861138	1698.6439888838809	1107.3731966034054	-19.681014313399608	1869.0040728931992	977.067290545785	-120.25142435960741	2027.658394830462	865.4009339259716	-216.74978054000758	2031.8058816785274	870.8145572956832	-238.16508073364975	2056.401305933332	870.8734427964655	-246.1457638805543	2075.9076746916567	868.2243249050986	-249.98013411594923	2094.2037085174893	863.7145324532354	-251.7023831766246	2039.5451148210384	861.3494267463302	-235.10154946713365	2071.5835448704156	846.5587416531409	-251.77756972958906	2100.1084806057347	837.9667798876346	-257.2423846049447	2116.8384642707806	836.8978328346628	-257.37941595280853	2130.008670832478	838.8951254652163	-255.29357228945543	2045.194169624511	854.6283552777111	-229.54197406983516	2079.497287944744	836.5660471221057	-242.8018399965402	2111.272910069284	826.3537659433094	-247.96970689802149	2131.7685674174586	824.6626239863242	-247.75336831815804	2146.330609565494	826.6528398243596	-245.2855214752246	2048.3263250512023	850.2195487852305	-225.24298940112882	2081.6667858078263	830.0943652219396	-233.55379531018104	2109.9725223625323	820.3669650289584	-237.22371907014508	2130.0661423403253	818.2968972110104	-236.57190815939012	2143.911629791056	819.9602621457991	-234.04152872713	2051.333712940209	845.8644312864135	-219.37651712227014	2083.6390835133357	824.5892121687068	-223.57040004632643	2107.1118295080846	815.5987306249598	-225.17072290958544	2122.1583513060905	813.507782621803	-224.04784955185963	2134.647754167616	814.6468579950742	-221.43373146513233
34	0.275	2081.203	893.81699	129.612	2160.8053978427474	896.4337066811028	82.56104285616055	2064.8013517114446	497.2564627111927	0.8162372559869778	2038.2218031395475	107.87668532014041	-29.567468003491847	1924.4152138323211	35.81965765072682	107.18970444343658	2015.8124076631793	866.0635407109739	190.18683494406497	1914.344386449522	474.65765991228074	298.9234104501415	1808.8436395882875	69.61812005060759	433.09958421659536	1661.1913952213506	12.775486815811362	327.8412944125333	2015.9142068826843	1010.5005377303428	79.37855590701116	1954.1041807733575	1067.6294172964213	31.402848340899286	1885.65954289328	1120.1600877547926	-20.888239992234045	1814.761266304345	1158.8123095144117	-74.18310168403973	1737.9173250362346	1201.851649580252	-128.5653135089138	1662.5246538791325	1236.9793014528045	-173.05081860996853	1523.95714210375	1315.4550229717436	-182.0664613947118	1782.674260517666	1193.6952066829854	-129.964294555123	1847.0468252143125	1203.6188377500416	-211.56304614839172	1909.8446911663198	984.4855543578228	-242.5687187959542	2024.2619811123302	829.9286873836002	-287.43256524148694	2020.7490766565024	827.194242471635	-308.47541063948154	2009.8273907306464	815.6834676078707	-320.76470697239245	2004.384184021735	805.3660524061953	-327.35041219468945	2001.69648696986	794.7961492152332	-331.1531601349915	2029.6513680555022	818.7168760584984	-303.9082648606609	2039.533202977061	792.9458950469233	-319.28848438352185	2038.5466052181682	774.8883510294687	-326.9292617332155	2031.0885593216235	767.4685841545885	-330.41197992088377	2020.2985947753984	763.8949067058079	-332.4396174608103	2034.8157042279895	813.3487782521253	-297.8623494953221	2047.2497737181454	785.3089569416292	-309.5943822864685	2046.8127550364452	764.97972264279	-317.0805326971266	2038.121773723379	755.7282005305096	-320.8736986933657	2026.4647769490225	751.6721874909997	-322.8936677255514	2038.308073484028	810.1949328752655	-293.21968801658	2052.7638534576986	782.2725407396848	-299.7659641765841	2053.0159714288284	763.9592190409422	-305.40192063338793	2044.9689959264183	754.7198025010515	-308.5886193907875	2034.1677610607765	750.7565794851254	-310.26417980444995	2041.2911050887258	807.4555992602981	-287.255693148302	2056.714027061087	780.084755577541	-289.65943499443756	2057.8397473461805	764.6148770317146	-292.7568493034147	2052.417147166138	757.4860932104804	-294.3964535903859	2043.1062013014441	753.7511553851402	-295.4866117931131	1743.9872385630201	1179.9115289325039	-91.11970318864145	1698.2055141169456	1106.4536695466215	-20.54854336894272	1869.7443621819268	977.5291953903819	-121.90404982625398	2032.5778994676916	869.433256724675	-221.09256164704877	2037.0730566487716	875.2730389468252	-242.40796227202048	2061.9174270406015	875.6270887837977	-250.10090917569852	2081.5896176247065	873.1600987741027	-253.76400278063625	2100.0174466995804	868.7821012852833	-255.36836535882009	2044.8309548140007	865.7758488945842	-239.46747048054257	2077.341669561876	851.4451286556364	-256.1660202836681	2106.1217267066386	843.1048760542872	-261.4975843235514	2122.939442118234	842.138269657792	-261.44456112868846	2136.1344514293987	844.1837479481219	-259.1290907233438	2050.4395827160474	858.9718070941356	-233.9791771965243	2085.181501792595	841.3132744723861	-247.29963170065895	2117.228558973786	831.3631371673237	-252.331233790245	2137.8267206332766	829.7894514235242	-251.8899907509109	2152.4142847957914	831.8294704165281	-249.17303583005267	2053.531911303241	854.4932742760471	-229.73169565206751	2087.2333863458903	834.6712871023694	-238.14649532014866	2115.7678879030686	825.158927321889	-241.70688976759703	2135.9562303392786	823.195013147822	-240.8430419492166	2149.823746938193	824.9018213405152	-238.0807545931074	2056.4734931394382	850.0394889038963	-223.9104805908089	2089.072209938976	828.9838002527754	-228.23337526359714	2112.714377411792	820.143214672372	-229.75993642522886	2127.8233306394604	818.1189041802284	-228.48914181184077	2140.3284169558806	819.2902534863933	-225.6734778426254
35	0.283	2081.203	893.81699	129.612	2161.168423091662	896.6213194961482	82.78787335603133	2064.7952894077193	497.4369195633079	1.4754726172350845	2038.0241679164606	107.87112871472915	-28.214475685940407	1924.0847478956905	35.84239904713371	108.53014926480992	2015.421504399027	865.8652874913239	189.96925474868087	1913.9586450134643	474.44919559447914	298.6868588553457	1808.3065833706653	69.74223333927996	433.86647480878975	1660.545149905411	13.508436719472941	328.40096220480046	2015.9875809058378	1010.5372695755403	79.36031842162905	1954.3006613033886	1067.82236194078	31.410457574269547	1886.021763895613	1120.5756984179964	-20.878973010356216	1815.352992294172	1159.5548236028314	-74.26149910738322	1738.7321298621182	1202.9304672321682	-128.7082006802297	1663.4378709473672	1238.2859327102321	-173.17713978814982	1524.8677582267371	1316.7573553436935	-182.21136906403868	1783.6538593380344	1195.0925538797576	-130.00680197287238	1848.449554231074	1205.708179029202	-211.39560695322712	1912.1873622158728	986.3530412925545	-244.26821512088932	2028.0808258965942	832.8022128181285	-290.48840768083517	2024.6387087109674	830.2632758547387	-311.5121311337293	2013.7555580380654	818.9648934780433	-323.9858471205035	2008.340963176798	808.786634734273	-330.7210029620985	2005.678640824734	798.3252617652814	-334.6663265436932	2033.559126861751	821.7711728054019	-307.00492007219896	2043.5607531094279	796.2496563328708	-322.58466387762326	2042.6295289800087	778.3726666665123	-330.4372795211095	2035.179796315453	771.0567403036747	-334.0591563647315	2024.3790966581964	767.5633414537745	-336.20701542447995	2038.7228090639362	816.3709260586959	-301.0126943934739	2051.273373847703	788.5570292330656	-312.9683595226739	2050.8962661101705	768.4197724410943	-320.6921964639803	2042.2150704062851	759.2911109136787	-324.65639678842905	2030.5462088394472	755.3217587840184	-326.8094270008866	2042.2119800178782	813.1879249143583	-296.40231354095334	2056.770316873355	785.4424598464551	-303.17538343117496	2057.0739408560166	767.2909601944001	-309.0248310821661	2049.036031479935	758.1671298217551	-312.3798595380356	2038.2234670510852	754.2839981252323	-314.1821262059008	2045.1853276670076	810.4083700634858	-290.47418844426653	2060.6974696438338	783.1748322562688	-293.10622361270293	2061.862879170955	767.8251739514311	-296.3834829428431	2056.4461355025064	760.776162495399	-298.15016887436417	2047.1247172869394	757.1095652409517	-299.3550357711105	1744.4923243191931	1180.4395855781738	-91.3454505105699	1698.1693659903246	1106.0502545139975	-21.387500974461076	1871.0448312825679	978.7149051474756	-123.56049938324684	2036.9627158627056	873.4611323154835	-224.0951098923209	2041.787581915775	879.7075051740452	-245.29784082210097	2066.8660521075362	880.3231870015956	-252.700191798401	2086.692862110936	878.0154354191537	-256.1897202814889	2105.2423873220155	873.7505547643602	-257.67402675067285	2049.558390692948	870.1793702167896	-242.47678634898037	2082.5060851802787	856.276766693291	-259.17762059884586	2111.52183311282	848.1594259620607	-264.3690833503679	2128.4214742216527	847.2757209165536	-264.12753846689066	2141.640716404297	849.3522380267527	-261.5876215124687	2055.1256921698987	863.2944201056143	-237.06002010598183	2090.271486480384	846.0097216656889	-250.42142837711856	2122.5687709905774	836.2906768994849	-255.30940298299492	2143.2624344493925	834.8111594262857	-254.6451551959208	2157.874889277833	836.8823068076188	-251.684779701764	2058.178391416386	858.7485051707774	-232.864634945827	2092.2095529510375	839.2050847728432	-241.36613309081108	2120.9543958162812	829.881118621443	-244.81071446811373	2141.230738346536	828.0011235678077	-243.73674716144507	2155.1197120958905	829.7339231070483	-240.74793250800644	2061.055919858603	854.199156819447	-227.0905860019693	2093.9201133267675	833.3425357743107	-231.5275353975726	2117.717173104082	824.6312684095391	-232.97559046682034	2132.8837668365777	822.657755479446	-231.5584175209694	2145.4040861230446	823.8461327188454	-228.54605755701175
36	0.292	2081.203	893.81699	129.612	2161.5207828255834	896.8095198569758	83.0043490611961	2064.7612194681233	497.63141478486415	2.0846090724247857	2037.8310699911233	107.88566511963963	-26.932106515809558	1923.7586902417193	35.960247233504326	109.84017586500707	2015.043114804367	865.6663951102486	189.76013674998313	1913.6834226593305	474.2025370352891	298.40905508904564	1807.7893030584942	69.84216237239531	434.5668826026265	1660.137309383265	13.753460352973695	328.8743651478341	2016.054341796408	1010.5741185471618	79.35035452193674	1954.5035207537578	1068.0931658172738	31.510045505751208	1886.4401762318555	1121.1960702226115	-20.7040037566098	1816.1265741946772	1160.7192995009448	-74.17165093480494	1739.8499073954124	1204.6532171809345	-128.66255773824642	1664.7850999603202	1240.4510270255623	-173.11857311692577	1526.193174764637	1318.8810108488267	-182.22981032530913	1785.0741137778177	1197.446901087454	-129.75895073857396	1850.4042062016417	1208.8875568302392	-210.96070043817858	1914.819930475665	989.2317501679057	-245.37819804264257	2032.0644446789183	836.6635693325828	-292.92774186570267	2028.6912075745806	834.3176939942994	-313.9428665507497	2017.8373942347505	823.2273785822892	-326.60660822327895	2012.4441195380828	813.1847983461465	-333.4945904351287	2009.8003459393494	802.8286503448859	-337.5848474608951	2037.626794774899	825.8089355039074	-309.4951666754825	2047.735793099421	800.5285504328011	-325.28572478029383	2046.8491958467198	782.8264350425519	-333.3553274074458	2039.4016197348615	775.611895396119	-337.11763178946114	2028.5854504922395	772.197477353058	-339.3854519871054	2042.787746027885	820.3755603684091	-303.5546769290121	2055.4415755364444	792.7789348562795	-315.74393052270506	2055.112414477058	772.8273510650043	-323.7107726237849	2046.4334659451295	763.8185445047994	-327.8473870644329	2034.7475020653142	759.934406975074	-330.1331304739549	2046.272588615186	817.1629126707901	-298.97493303752685	2060.920675094468	789.5861905629008	-305.9823643952339	2061.2651629306156	771.5909248216055	-312.0496239475667	2053.2289219181116	762.5797259206515	-315.5741476058758	2042.4000469890277	758.7753156352572	-317.50270382198505	2049.2352066650556	814.3428677369926	-293.08024993306987	2064.824204805925	787.2389347153218	-295.9461168072902	2066.0204942803252	772.0049122225721	-299.4061419655221	2060.604076918342	765.0334727688954	-301.3004936231194	2051.2676958270927	761.433964464486	-302.6195641232063	1745.0883935637464	1181.1450638198316	-91.51982867374169	1698.3052446372076	1105.9882661767278	-22.06286566113718	1873.3683780993622	981.1721766816015	-125.52223816693194	2041.476807434137	878.2480061851725	-226.8834080516659	2046.437634378721	884.6978736237706	-247.9131564831252	2071.6192428493996	885.3673229826843	-255.08311299468667	2091.5165195462523	883.0864786307079	-258.4350799085336	2110.1236087314164	878.8350147150904	-259.82547218337754	2054.221346170672	875.1659109771934	-245.17491059568206	2087.3682757863203	861.4631855943777	-261.77752337746955	2116.494069652596	853.403311831108	-266.83839623929737	2133.432081101986	852.5036045269026	-266.46935014986093	2146.662823512564	854.5319810533142	-263.79266557349644	2059.776621757034	868.2414608141777	-239.82464198125655	2095.110256120397	851.130378558435	-253.12622232861	2127.525349090247	841.4680807153559	-257.8807181785278	2148.264218901677	839.9663954578887	-257.066971363378	2162.888719422442	841.9834766451324	-253.95904395205864	2062.8160667992042	863.6633454736501	-235.67950767984692	2097.0049883262095	844.2498968453149	-244.17327304818653	2125.8499012105694	834.9690132595065	-247.510808242858	2146.1684597335075	833.0642524579108	-246.29757862858662	2160.0681064065243	834.7446103521565	-243.17236872272093	2065.670005725819	859.064786687671	-229.96014732939938	2098.6655053260165	838.2997862031592	-234.42628159587827	2122.5379184506596	829.612497162725	-235.8031500302171	2137.7329994243764	827.6158324033014	-234.2914349329906	2150.2614360723855	828.7548268740483	-231.16229628553378
